<?xml version="1.0" encoding="utf-8"?>
<!-- Generator: Adobe Illustrator 24.1.3, SVG Export Plug-In . SVG Version: 6.00 Build 0)  -->
<svg version="1.1" id="Layer_2" xmlns="http://www.w3.org/2000/svg" xmlns:xlink="http://www.w3.org/1999/xlink" x="0px" y="0px"
	 viewBox="0 0 1024 1024" style="enable-background:new 0 0 1024 1024;" xml:space="preserve">
<g>
	<path d="M756.82,892.31l40.12,117.65c7.22,21.17,32.85,17.53,35.82-5.09l27.46-208.78c2.94-22.34-4.62-44.81-19.62-58.29
		l-146.3-131.55l24.43-306.18h-1.86C705.91,214.8,643.63,110.82,591.2,36.23c-33.96-48.31-116.47-48.31-150.43,0
		c-26.34,37.46-55.15,82.35-78.7,128.54c51.7-9.11,155.68-21.17,263.28,2.68c6.16,1.36,9.86,6.72,8.25,11.97
		c-1.61,5.25-7.94,8.4-14.09,7.02c-17.27-3.83-34.51-6.66-51.47-8.7c-68.84-8.3-133.07-3.42-176.6,2.56
		c-16.8,2.31-30.49,4.77-40.18,6.71c-18.01,38.62-31.59,77.47-36.17,113.06h-0.16v1.22c-1,8.13-1.7,16.16-1.7,23.9
		c0,11.9,0.62,23.6,1.7,35.1l21.42,240L183.41,737.79c-15,13.48-22.56,35.95-19.62,58.29l27.46,208.78
		c2.98,22.62,28.6,26.27,35.82,5.09l40.12-117.65c1.32-3.87,4.13-6.69,7.51-7.54l90.18-22.67c10.43,16.84,31.15,28.25,54.92,28.25
		h59.32V672.97c0-19.59,18.75-35.53,41.79-35.53c23.04,0,41.79,15.94,41.79,35.53v217.38h50.9c22.81,0,42.85-10.49,53.65-26.21
		l82.06,20.63C752.69,885.62,755.5,888.45,756.82,892.31z M515.98,573.71c-67.98,0-123.28-56.28-123.28-125.46
		S448,322.79,515.98,322.79c67.97,0,123.27,56.28,123.27,125.46S583.95,573.71,515.98,573.71z"/>
	<path d="M539.62,1008.09V890.35V672.97c0-8.78-8.38-15.91-18.71-15.91c-10.33,0-18.71,7.12-18.71,15.91v217.38v117.74
		c0,8.78,8.38,15.91,18.71,15.91C531.24,1024,539.62,1016.88,539.62,1008.09z"/>
	<path d="M515.98,340.21c-56.69,0-102.8,48.47-102.8,108.05c0,59.57,46.12,108.04,102.8,108.04c56.68,0,102.79-48.47,102.79-108.04
		C618.77,388.67,572.66,340.21,515.98,340.21z M480.71,390.47c-23.27,12.45-24.14,40.87-24.15,41.16c-0.1,4.76-4.66,8.57-10.24,8.57
		c-0.05,0-0.1,0-0.15,0c-5.64-0.07-10.15-4-10.09-8.8c0.02-1.55,0.9-38.12,33.72-55.67c4.79-2.56,11.11-1.33,14.12,2.73
		C486.94,382.54,485.5,387.91,480.71,390.47z"/>
</g>
</svg>
